<svg xmlns="http://www.w3.org/2000/svg" xmlns:xlink="http://www.w3.org/1999/xlink" width="1080" zoomAndPan="magnify" viewBox="0 0 810 809.999993" height="1080" preserveAspectRatio="xMidYMid meet" version="1.0"><path fill="#000000" d="M 404.726562 17.464844 C 191.199219 17.464844 17.46875 191.1875 17.46875 404.726562 C 17.472656 618.261719 191.199219 791.992188 404.726562 791.992188 C 618.261719 791.992188 791.984375 618.261719 791.984375 404.726562 C 791.988281 191.1875 618.257812 17.464844 404.726562 17.464844 Z M 404.726562 809.675781 C 296.554688 809.675781 194.863281 767.554688 118.386719 691.066406 C 41.914062 614.582031 -0.210938 512.890625 -0.210938 404.726562 C -0.210938 296.5625 41.910156 194.875 118.386719 118.390625 C 194.863281 41.90625 296.554688 -0.214844 404.726562 -0.214844 C 512.886719 -0.214844 614.574219 41.90625 691.070312 118.390625 C 767.546875 194.871094 809.667969 296.5625 809.667969 404.726562 C 809.667969 512.890625 767.542969 614.582031 691.070312 691.066406 C 614.578125 767.550781 512.882812 809.675781 404.726562 809.675781 Z M 404.726562 809.675781 " fill-opacity="1" fill-rule="evenodd"/><path fill="#000000" d="M 713.230469 662.015625 C 711.734375 662.015625 710.226562 661.640625 708.84375 660.84375 C 634.453125 618.175781 523.605469 593.703125 404.730469 593.703125 C 285.855469 593.703125 175.007812 618.175781 100.613281 660.84375 C 96.382812 663.269531 90.980469 661.808594 88.550781 657.574219 C 86.121094 653.335938 87.574219 647.933594 91.8125 645.503906 C 168.800781 601.347656 282.851562 576.023438 404.730469 576.023438 C 526.609375 576.023438 640.65625 601.347656 717.628906 645.503906 C 721.871094 647.933594 723.339844 653.339844 720.910156 657.574219 C 719.269531 660.421875 716.285156 662.015625 713.230469 662.015625 Z M 713.230469 662.015625 " fill-opacity="1" fill-rule="evenodd"/><path fill="#000000" d="M 404.726562 17.464844 C 350.46875 17.464844 299.023438 57.03125 259.882812 128.867188 C 219.824219 202.40625 197.753906 300.375 197.753906 404.726562 C 197.757812 509.074219 219.820312 607.042969 259.882812 680.582031 C 299.023438 752.429688 350.464844 791.992188 404.726562 791.992188 C 458.992188 791.992188 510.414062 752.429688 549.554688 680.582031 C 589.621094 607.039062 611.683594 509.078125 611.683594 404.726562 C 611.683594 300.375 589.617188 202.40625 549.554688 128.867188 C 510.417969 57.03125 458.988281 17.464844 404.726562 17.464844 Z M 404.726562 809.675781 C 343.6875 809.675781 286.738281 766.835938 244.355469 689.042969 C 202.914062 612.953125 180.074219 511.980469 180.074219 404.726562 C 180.074219 297.472656 202.910156 196.503906 244.355469 120.410156 C 286.738281 42.625 343.6875 -0.214844 404.726562 -0.214844 C 465.753906 -0.214844 522.703125 42.625 565.082031 120.410156 C 606.546875 196.5 629.367188 297.472656 629.367188 404.726562 C 629.367188 511.980469 606.542969 612.953125 565.082031 689.042969 C 522.703125 766.832031 465.75 809.675781 404.726562 809.675781 Z M 404.726562 809.675781 " fill-opacity="1" fill-rule="evenodd"/><path fill="#000000" d="M 404.726562 809.671875 C 399.851562 809.671875 395.886719 805.710938 395.886719 800.832031 L 395.890625 8.617188 C 395.890625 3.734375 399.847656 -0.222656 404.726562 -0.222656 C 409.609375 -0.222656 413.570312 3.738281 413.570312 8.621094 L 413.570312 800.828125 C 413.570312 805.707031 409.609375 809.667969 404.726562 809.667969 Z M 404.726562 809.671875 " fill-opacity="1" fill-rule="evenodd"/><path fill="#000000" d="M 404.726562 236.5 C 281.785156 236.5 167.105469 210.8125 90.078125 166.019531 C 85.859375 163.5625 84.441406 158.152344 86.890625 153.933594 C 89.34375 149.710938 94.753906 148.28125 98.972656 150.734375 C 173.371094 194.003906 284.800781 218.816406 404.726562 218.816406 C 524.636719 218.816406 636.089844 194.003906 710.480469 150.734375 C 714.703125 148.28125 720.097656 149.710938 722.566406 153.929688 C 725.015625 158.152344 723.578125 163.566406 719.359375 166.019531 C 642.351562 210.8125 527.671875 236.5 404.726562 236.5 Z M 404.726562 236.5 " fill-opacity="1" fill-rule="evenodd"/><path fill="#000000" d="M 800.824219 413.566406 L 8.628906 413.566406 C 3.746094 413.566406 -0.214844 409.609375 -0.214844 404.726562 C -0.214844 399.84375 3.746094 395.882812 8.625 395.882812 L 800.820312 395.882812 C 805.703125 395.882812 809.660156 399.84375 809.660156 404.726562 C 809.660156 409.605469 805.703125 413.566406 800.820312 413.566406 Z M 800.824219 413.566406 " fill-opacity="1" fill-rule="evenodd"/></svg>