<svg xmlns="http://www.w3.org/2000/svg" xmlns:xlink="http://www.w3.org/1999/xlink" width="1080" zoomAndPan="magnify" viewBox="0 0 810 809.999993" height="1080" preserveAspectRatio="xMidYMid meet" version="1.0"><defs><clipPath id="86acdcb0b3"><path d="M 16.199219 16 L 793.949219 16 L 793.949219 794 L 16.199219 794 Z M 16.199219 16 " clip-rule="nonzero"/></clipPath></defs><g clip-path="url(#86acdcb0b3)"><path fill="#000000" d="M 405.074219 16.203125 C 190.304688 16.203125 16.199219 190.273438 16.199219 405 C 16.199219 619.726562 190.304688 793.800781 405.074219 793.800781 C 619.84375 793.800781 793.949219 619.726562 793.949219 405 C 793.949219 190.273438 619.84375 16.203125 405.074219 16.203125 Z M 81.011719 405 C 81.011719 226.058594 226.101562 81 405.074219 81 C 584.050781 81 729.136719 226.058594 729.136719 405 C 729.136719 550.8125 632.796875 674.125 500.289062 714.789062 C 503.90625 649.304688 502.667969 608.742188 496.5625 593.101562 C 490.117188 576.59375 484.867188 569.824219 481.71875 565.769531 C 479.65625 563.109375 478.496094 561.613281 478.496094 559.304688 C 478.496094 555.417969 481.234375 552.597656 486.710938 550.851562 C 534.457031 540.296875 566.472656 510.960938 582.765625 462.835938 C 605.332031 396.15625 573.117188 347.671875 560.082031 328.054688 C 559.007812 326.433594 558.0625 325.011719 557.285156 323.789062 C 547.152344 307.792969 560.429688 268.863281 576.285156 237.707031 C 522.367188 226.898438 501.773438 251.945312 489.964844 266.308594 C 485.140625 272.175781 481.78125 276.261719 478.214844 275.394531 C 475.03125 274.617188 471.601562 273.113281 467.488281 271.304688 C 455.71875 266.132812 438.351562 258.5 405.074219 258.5 C 363.808594 258.5 336.464844 272.910156 332.285156 275.113281 C 331.917969 275.308594 331.726562 275.394531 331.726562 275.394531 C 310.035156 245.167969 279.230469 232.605469 239.3125 237.707031 C 250.304688 281.632812 251.132812 310.324219 241.792969 323.789062 C 227.777344 343.984375 201.511719 390.964844 221.902344 462.835938 C 242.292969 534.710938 316.53125 550.851562 330.660156 550.851562 L 330.753906 550.871094 C 331.875 551.113281 342.273438 553.359375 339.152344 562.144531 C 338.539062 564.480469 338.132812 567.660156 337.671875 571.242188 C 336.199219 582.75 334.199219 598.386719 323.160156 603.472656 C 308.6875 610.140625 276.753906 613.78125 263.394531 605.457031 C 258.945312 602.683594 255.746094 596.886719 251.898438 589.898438 C 244.191406 575.914062 233.867188 557.183594 205.628906 548.464844 C 163.289062 535.398438 165.941406 552.679688 176.511719 556.921875 C 178.835938 557.851562 181.921875 558.726562 185.441406 559.726562 C 197.90625 563.253906 215.847656 568.335938 225.039062 583.125 C 227.734375 587.460938 230.507812 592.210938 233.339844 597.058594 C 242.90625 613.441406 253.15625 631 263.394531 637.730469 C 272.246094 643.550781 293.453125 645.878906 327.023438 644.71875 C 325.566406 676.402344 324.785156 701.148438 324.683594 718.953125 C 184.597656 683.203125 81.011719 556.199219 81.011719 405 Z M 81.011719 405 " fill-opacity="0.85" fill-rule="evenodd"/></g></svg>