<svg xmlns="http://www.w3.org/2000/svg" xmlns:xlink="http://www.w3.org/1999/xlink" width="1080" zoomAndPan="magnify" viewBox="0 0 810 809.999993" height="1080" preserveAspectRatio="xMidYMid meet" version="1.0"><defs><clipPath id="732a6f7f82"><path d="M 16.199219 16 L 793.949219 16 L 793.949219 794 L 16.199219 794 Z M 16.199219 16 " clip-rule="nonzero"/></clipPath></defs><g clip-path="url(#732a6f7f82)"><path fill="#ffffff" d="M 405 16.203125 C 190.273438 16.203125 16.199219 190.273438 16.199219 405 C 16.199219 619.726562 190.273438 793.800781 405 793.800781 C 619.726562 793.800781 793.796875 619.726562 793.796875 405 C 793.796875 190.273438 619.726562 16.203125 405 16.203125 Z M 81 405 C 81 226.058594 226.058594 81 405 81 C 583.941406 81 728.996094 226.058594 728.996094 405 C 728.996094 550.8125 632.675781 674.125 500.191406 714.789062 C 503.8125 649.304688 502.570312 608.742188 496.46875 593.101562 C 490.027344 576.59375 484.777344 569.824219 481.628906 565.769531 C 479.5625 563.109375 478.402344 561.613281 478.402344 559.304688 C 478.402344 555.417969 481.140625 552.597656 486.617188 550.851562 C 534.355469 540.296875 566.367188 510.960938 582.652344 462.835938 C 605.21875 396.15625 573.007812 347.671875 559.976562 328.054688 C 558.902344 326.433594 557.957031 325.011719 557.179688 323.789062 C 547.050781 307.792969 560.324219 268.863281 576.175781 237.707031 C 522.265625 226.898438 501.679688 251.945312 489.871094 266.308594 C 485.050781 272.175781 481.6875 276.261719 478.125 275.394531 C 474.941406 274.617188 471.511719 273.113281 467.402344 271.304688 C 455.632812 266.132812 438.269531 258.5 405 258.5 C 363.742188 258.5 336.402344 272.910156 332.222656 275.113281 C 331.855469 275.308594 331.664062 275.394531 331.664062 275.394531 C 309.976562 245.167969 279.179688 232.605469 239.269531 237.707031 C 250.261719 281.632812 251.085938 310.324219 241.746094 323.789062 C 227.738281 343.984375 201.476562 390.964844 221.863281 462.835938 C 242.25 534.710938 316.472656 550.851562 330.597656 550.851562 L 330.691406 550.871094 C 331.816406 551.113281 342.210938 553.359375 339.089844 562.144531 C 338.476562 564.480469 338.070312 567.660156 337.609375 571.242188 C 336.136719 582.75 334.136719 598.386719 323.101562 603.472656 C 308.628906 610.140625 276.703125 613.78125 263.347656 605.457031 C 258.898438 602.683594 255.699219 596.886719 251.851562 589.898438 C 244.144531 575.914062 233.824219 557.183594 205.59375 548.464844 C 163.261719 535.398438 165.914062 552.679688 176.480469 556.921875 C 178.804688 557.851562 181.890625 558.726562 185.410156 559.726562 C 197.871094 563.253906 215.808594 568.335938 225 583.125 C 227.695312 587.460938 230.464844 592.210938 233.296875 597.058594 C 242.859375 613.441406 253.109375 631 263.347656 637.730469 C 272.195312 643.550781 293.402344 645.878906 326.964844 644.71875 C 325.503906 676.402344 324.726562 701.148438 324.625 718.953125 C 184.566406 683.203125 81 556.199219 81 405 Z M 81 405 " fill-opacity="0.85" fill-rule="evenodd"/></g></svg>