<svg xmlns="http://www.w3.org/2000/svg" xmlns:xlink="http://www.w3.org/1999/xlink" width="1080" zoomAndPan="magnify" viewBox="0 0 810 809.999993" height="1080" preserveAspectRatio="xMidYMid meet" version="1.0"><path stroke-linecap="butt" transform="matrix(0, -0.75, 0.75, 0, 238.424581, 625.957021)" fill="none" stroke-linejoin="miter" d="M -0.0000143214 7.501601 L 589.218765 7.501601 " stroke="#ffffff" stroke-width="15" stroke-opacity="1" stroke-miterlimit="4"/><path stroke-linecap="butt" transform="matrix(0, -0.75, 0.75, 0, 480.231171, 497.039299)" fill="none" stroke-linejoin="miter" d="M 0.000315326 7.499064 L 417.328461 7.499064 " stroke="#ffffff" stroke-width="15" stroke-opacity="1" stroke-miterlimit="4"/><path stroke-linecap="butt" transform="matrix(0.749983, -0.00512334, 0.00512334, 0.749983, 244.011802, 401.026992)" fill="none" stroke-linejoin="miter" d="M 0.000733992 7.500649 L 322.414505 7.49997 " stroke="#ffffff" stroke-width="15" stroke-opacity="1" stroke-miterlimit="4"/><path stroke-linecap="butt" transform="matrix(0.75, 0, 0, 0.75, 480.232059, 184.04229)" fill="none" stroke-linejoin="miter" d="M 7.49788 463.532178 L 7.49788 538.09989 C 7.49788 560.740517 25.857256 579.099893 48.497882 579.099893 L 292.914561 579.099893 C 315.555187 579.099893 333.914563 560.740517 333.914563 538.09989 L 333.914563 0.000905079 " stroke="#ffffff" stroke-width="15" stroke-opacity="1" stroke-miterlimit="4"/><path stroke-linecap="butt" transform="matrix(0.75, 0, 0, 0.75, 8.6879, 126.07847)" fill="none" stroke-linejoin="miter" d="M 97.249472 373.806851 L 154.785933 373.806851 C 177.431767 373.806851 195.785935 392.166227 195.785935 414.806853 L 195.785935 695.291242 C 195.785935 717.931868 214.140103 736.291244 236.785937 736.291244 L 1012.421393 736.291244 C 1035.067227 736.291244 1053.421395 717.931868 1053.421395 695.291242 L 1053.421395 48.499543 C 1053.421395 25.858917 1035.067227 7.499541 1012.421393 7.499541 L 236.785937 7.499541 C 214.140103 7.499541 195.785935 25.858917 195.785935 48.499543 L 195.785935 332.806849 C 195.785935 355.452683 177.431767 373.806851 154.785933 373.806851 Z M 97.249472 373.806851 " stroke="#ffffff" stroke-width="15" stroke-opacity="1" stroke-miterlimit="4"/><path stroke-linecap="round" transform="matrix(0.75, 0, 0, 0.75, 8.6879, 126.07847)" fill="none" stroke-linejoin="round" d="M 7.499467 373.806851 C 7.499467 361.384975 17.572384 351.30685 29.999468 351.30685 C 42.426552 351.30685 52.499469 361.384975 52.499469 373.806851 C 52.499469 386.233935 42.426552 396.306852 29.999468 396.306852 C 17.572384 396.306852 7.499467 386.233935 7.499467 373.806851 " stroke="#ffffff" stroke-width="15" stroke-opacity="1" stroke-miterlimit="4"/><path stroke-linecap="round" transform="matrix(0.75, 0, 0, 0.75, 8.6879, 126.07847)" fill="none" stroke-linejoin="round" d="M 7.499467 373.806851 C 7.499467 361.384975 17.572384 351.30685 29.999468 351.30685 C 42.426552 351.30685 52.499469 361.384975 52.499469 373.806851 C 52.499469 386.233935 42.426552 396.306852 29.999468 396.306852 C 17.572384 396.306852 7.499467 386.233935 7.499467 373.806851 " stroke="#ffffff" stroke-width="15" stroke-opacity="1" stroke-miterlimit="4"/></svg>