<svg xmlns="http://www.w3.org/2000/svg" xmlns:xlink="http://www.w3.org/1999/xlink" width="1080" zoomAndPan="magnify" viewBox="0 0 810 809.999993" height="1080" preserveAspectRatio="xMidYMid meet" version="1.0"><path fill="#f9f8f8" d="M 737.296875 810 L 72.703125 810 C 71.515625 810 70.324219 809.96875 69.136719 809.910156 C 67.949219 809.847656 66.765625 809.761719 65.582031 809.644531 C 64.398438 809.523438 63.214844 809.378906 62.039062 809.203125 C 60.863281 809.027344 59.691406 808.824219 58.527344 808.589844 C 57.359375 808.355469 56.199219 808.097656 55.046875 807.804688 C 53.890625 807.515625 52.746094 807.199219 51.609375 806.851562 C 50.46875 806.503906 49.339844 806.132812 48.222656 805.730469 C 47.101562 805.328125 45.992188 804.902344 44.894531 804.445312 C 43.796875 803.988281 42.707031 803.507812 41.632812 802.996094 C 40.558594 802.488281 39.496094 801.953125 38.445312 801.390625 C 37.398438 800.832031 36.363281 800.246094 35.34375 799.632812 C 34.324219 799.019531 33.320312 798.382812 32.332031 797.722656 C 31.339844 797.0625 30.371094 796.378906 29.414062 795.667969 C 28.457031 794.960938 27.523438 794.226562 26.601562 793.472656 C 25.683594 792.71875 24.78125 791.941406 23.902344 791.144531 C 23.019531 790.34375 22.160156 789.523438 21.316406 788.683594 C 20.476562 787.839844 19.65625 786.980469 18.859375 786.097656 C 18.058594 785.21875 17.28125 784.316406 16.527344 783.398438 C 15.773438 782.480469 15.039062 781.542969 14.332031 780.585938 C 13.621094 779.628906 12.9375 778.660156 12.277344 777.667969 C 11.617188 776.679688 10.980469 775.675781 10.367188 774.65625 C 9.753906 773.636719 9.167969 772.601562 8.609375 771.554688 C 8.046875 770.503906 7.511719 769.441406 7.003906 768.367188 C 6.492188 767.292969 6.011719 766.203125 5.554688 765.105469 C 5.097656 764.007812 4.671875 762.898438 4.269531 761.777344 C 3.867188 760.660156 3.496094 759.53125 3.148438 758.390625 C 2.800781 757.253906 2.484375 756.109375 2.195312 754.953125 C 1.90625 753.800781 1.644531 752.640625 1.410156 751.472656 C 1.175781 750.308594 0.972656 749.136719 0.796875 747.960938 C 0.621094 746.785156 0.476562 745.601562 0.355469 744.417969 C 0.238281 743.234375 0.152344 742.050781 0.0898438 740.863281 C 0.03125 739.675781 0 738.484375 0 737.296875 L 0 72.703125 C 0 71.515625 0.03125 70.324219 0.0898438 69.136719 C 0.152344 67.949219 0.238281 66.765625 0.355469 65.582031 C 0.476562 64.398438 0.621094 63.214844 0.796875 62.039062 C 0.972656 60.863281 1.175781 59.691406 1.410156 58.527344 C 1.644531 57.359375 1.90625 56.199219 2.195312 55.046875 C 2.484375 53.890625 2.800781 52.746094 3.148438 51.609375 C 3.496094 50.46875 3.867188 49.339844 4.269531 48.222656 C 4.671875 47.101562 5.097656 45.992188 5.554688 44.894531 C 6.011719 43.796875 6.492188 42.707031 7.003906 41.632812 C 7.511719 40.558594 8.046875 39.496094 8.609375 38.445312 C 9.167969 37.398438 9.753906 36.363281 10.367188 35.34375 C 10.980469 34.324219 11.617188 33.320312 12.277344 32.332031 C 12.9375 31.339844 13.621094 30.371094 14.332031 29.414062 C 15.039062 28.457031 15.773438 27.523438 16.527344 26.601562 C 17.28125 25.683594 18.058594 24.78125 18.859375 23.902344 C 19.65625 23.019531 20.476562 22.160156 21.316406 21.316406 C 22.160156 20.476562 23.019531 19.65625 23.902344 18.859375 C 24.78125 18.058594 25.683594 17.28125 26.601562 16.527344 C 27.523438 15.773438 28.457031 15.039062 29.414062 14.332031 C 30.371094 13.621094 31.339844 12.9375 32.332031 12.277344 C 33.320312 11.617188 34.324219 10.980469 35.34375 10.367188 C 36.363281 9.753906 37.398438 9.167969 38.445312 8.609375 C 39.496094 8.046875 40.558594 7.511719 41.632812 7.003906 C 42.707031 6.492188 43.796875 6.011719 44.894531 5.554688 C 45.992188 5.097656 47.101562 4.671875 48.222656 4.269531 C 49.339844 3.867188 50.46875 3.496094 51.609375 3.148438 C 52.746094 2.800781 53.890625 2.484375 55.046875 2.195312 C 56.199219 1.90625 57.359375 1.644531 58.527344 1.410156 C 59.691406 1.175781 60.863281 0.972656 62.039062 0.796875 C 63.214844 0.621094 64.398438 0.476562 65.582031 0.355469 C 66.765625 0.238281 67.949219 0.152344 69.136719 0.0898438 C 70.324219 0.03125 71.515625 0 72.703125 0 L 737.296875 0 C 738.484375 0 739.675781 0.03125 740.863281 0.0898438 C 742.050781 0.152344 743.234375 0.238281 744.417969 0.355469 C 745.601562 0.476562 746.785156 0.621094 747.960938 0.796875 C 749.136719 0.972656 750.308594 1.175781 751.472656 1.410156 C 752.640625 1.644531 753.800781 1.90625 754.953125 2.195312 C 756.109375 2.484375 757.253906 2.800781 758.390625 3.148438 C 759.53125 3.496094 760.660156 3.867188 761.777344 4.269531 C 762.898438 4.671875 764.007812 5.097656 765.105469 5.554688 C 766.203125 6.011719 767.292969 6.492188 768.367188 7.003906 C 769.441406 7.511719 770.503906 8.046875 771.554688 8.609375 C 772.601562 9.167969 773.636719 9.753906 774.65625 10.367188 C 775.675781 10.980469 776.679688 11.617188 777.667969 12.277344 C 778.660156 12.9375 779.628906 13.621094 780.585938 14.332031 C 781.542969 15.039062 782.480469 15.773438 783.398438 16.527344 C 784.316406 17.28125 785.21875 18.058594 786.097656 18.859375 C 786.980469 19.65625 787.839844 20.476562 788.683594 21.316406 C 789.523438 22.160156 790.34375 23.019531 791.144531 23.902344 C 791.941406 24.78125 792.71875 25.683594 793.472656 26.601562 C 794.226562 27.523438 794.960938 28.460938 795.667969 29.414062 C 796.378906 30.371094 797.0625 31.339844 797.722656 32.332031 C 798.382812 33.320312 799.019531 34.324219 799.632812 35.34375 C 800.246094 36.363281 800.832031 37.398438 801.390625 38.445312 C 801.953125 39.496094 802.488281 40.558594 802.996094 41.632812 C 803.507812 42.707031 803.988281 43.796875 804.445312 44.894531 C 804.902344 45.992188 805.328125 47.101562 805.730469 48.222656 C 806.132812 49.339844 806.503906 50.46875 806.851562 51.609375 C 807.199219 52.746094 807.515625 53.890625 807.804688 55.046875 C 808.097656 56.199219 808.355469 57.359375 808.589844 58.527344 C 808.824219 59.691406 809.027344 60.863281 809.203125 62.039062 C 809.378906 63.214844 809.523438 64.398438 809.644531 65.582031 C 809.761719 66.765625 809.847656 67.949219 809.910156 69.136719 C 809.96875 70.324219 810 71.515625 810 72.703125 L 810 737.296875 C 810 738.484375 809.96875 739.675781 809.910156 740.863281 C 809.847656 742.050781 809.761719 743.234375 809.644531 744.417969 C 809.523438 745.601562 809.378906 746.78125 809.203125 747.960938 C 809.027344 749.136719 808.824219 750.308594 808.589844 751.472656 C 808.355469 752.640625 808.09375 753.800781 807.804688 754.953125 C 807.515625 756.109375 807.199219 757.253906 806.851562 758.390625 C 806.503906 759.53125 806.132812 760.660156 805.730469 761.777344 C 805.328125 762.898438 804.902344 764.007812 804.445312 765.105469 C 803.988281 766.203125 803.507812 767.292969 802.996094 768.367188 C 802.488281 769.441406 801.953125 770.503906 801.390625 771.550781 C 800.832031 772.601562 800.246094 773.636719 799.632812 774.65625 C 799.019531 775.675781 798.382812 776.679688 797.722656 777.667969 C 797.0625 778.660156 796.375 779.628906 795.667969 780.585938 C 794.960938 781.539062 794.226562 782.476562 793.472656 783.398438 C 792.71875 784.316406 791.941406 785.21875 791.140625 786.097656 C 790.34375 786.980469 789.523438 787.839844 788.683594 788.683594 C 787.839844 789.523438 786.980469 790.34375 786.097656 791.140625 C 785.21875 791.941406 784.316406 792.71875 783.398438 793.472656 C 782.476562 794.226562 781.539062 794.960938 780.585938 795.667969 C 779.628906 796.375 778.660156 797.0625 777.667969 797.722656 C 776.679688 798.382812 775.675781 799.019531 774.65625 799.632812 C 773.636719 800.246094 772.601562 800.832031 771.550781 801.390625 C 770.503906 801.953125 769.441406 802.488281 768.367188 802.996094 C 767.292969 803.507812 766.203125 803.988281 765.105469 804.445312 C 764.007812 804.902344 762.898438 805.328125 761.777344 805.730469 C 760.660156 806.132812 759.53125 806.503906 758.390625 806.851562 C 757.253906 807.199219 756.109375 807.515625 754.953125 807.804688 C 753.800781 808.09375 752.640625 808.355469 751.472656 808.589844 C 750.308594 808.824219 749.136719 809.027344 747.960938 809.203125 C 746.785156 809.378906 745.601562 809.523438 744.417969 809.644531 C 743.234375 809.761719 742.050781 809.847656 740.863281 809.910156 C 739.675781 809.96875 738.484375 810 737.296875 810 Z M 72.703125 27.390625 C 71.222656 27.394531 69.742188 27.46875 68.265625 27.613281 C 66.789062 27.761719 65.324219 27.980469 63.867188 28.269531 C 62.414062 28.5625 60.976562 28.921875 59.554688 29.351562 C 58.136719 29.785156 56.742188 30.285156 55.371094 30.855469 C 54 31.421875 52.660156 32.054688 51.355469 32.757812 C 50.046875 33.457031 48.773438 34.21875 47.542969 35.042969 C 46.308594 35.867188 45.117188 36.75 43.972656 37.691406 C 42.824219 38.632812 41.726562 39.628906 40.675781 40.675781 C 39.628906 41.726562 38.632812 42.824219 37.691406 43.972656 C 36.75 45.117188 35.867188 46.308594 35.042969 47.542969 C 34.21875 48.773438 33.457031 50.046875 32.757812 51.355469 C 32.054688 52.660156 31.421875 54 30.855469 55.371094 C 30.285156 56.742188 29.785156 58.136719 29.351562 59.554688 C 28.921875 60.976562 28.5625 62.414062 28.269531 63.867188 C 27.980469 65.324219 27.761719 66.789062 27.613281 68.265625 C 27.46875 69.742188 27.394531 71.222656 27.390625 72.703125 L 27.390625 737.296875 C 27.394531 738.777344 27.46875 740.257812 27.613281 741.734375 C 27.761719 743.210938 27.980469 744.675781 28.269531 746.132812 C 28.5625 747.585938 28.921875 749.023438 29.351562 750.445312 C 29.785156 751.863281 30.285156 753.257812 30.855469 754.628906 C 31.421875 756 32.054688 757.339844 32.757812 758.644531 C 33.457031 759.953125 34.21875 761.226562 35.042969 762.457031 C 35.867188 763.691406 36.75 764.882812 37.691406 766.027344 C 38.632812 767.175781 39.628906 768.273438 40.675781 769.324219 C 41.726562 770.371094 42.824219 771.367188 43.972656 772.308594 C 45.117188 773.25 46.308594 774.132812 47.542969 774.957031 C 48.773438 775.78125 50.046875 776.542969 51.355469 777.242188 C 52.660156 777.945312 54 778.578125 55.371094 779.144531 C 56.742188 779.714844 58.136719 780.214844 59.554688 780.648438 C 60.976562 781.078125 62.414062 781.4375 63.867188 781.730469 C 65.324219 782.019531 66.789062 782.238281 68.265625 782.386719 C 69.742188 782.53125 71.222656 782.605469 72.703125 782.609375 L 737.296875 782.609375 C 738.777344 782.605469 740.257812 782.53125 741.734375 782.386719 C 743.210938 782.238281 744.675781 782.019531 746.132812 781.730469 C 747.585938 781.4375 749.023438 781.078125 750.445312 780.648438 C 751.863281 780.214844 753.257812 779.714844 754.628906 779.144531 C 756 778.578125 757.339844 777.945312 758.644531 777.242188 C 759.953125 776.542969 761.226562 775.78125 762.457031 774.957031 C 763.691406 774.132812 764.882812 773.25 766.027344 772.308594 C 767.175781 771.367188 768.273438 770.371094 769.324219 769.324219 C 770.371094 768.273438 771.367188 767.175781 772.308594 766.027344 C 773.25 764.882812 774.132812 763.691406 774.957031 762.457031 C 775.78125 761.226562 776.542969 759.953125 777.242188 758.644531 C 777.945312 757.339844 778.578125 756 779.144531 754.628906 C 779.714844 753.257812 780.214844 751.863281 780.644531 750.445312 C 781.078125 749.023438 781.4375 747.585938 781.730469 746.132812 C 782.019531 744.675781 782.238281 743.210938 782.386719 741.734375 C 782.53125 740.257812 782.605469 738.777344 782.609375 737.296875 L 782.609375 72.703125 C 782.605469 71.222656 782.53125 69.742188 782.386719 68.265625 C 782.238281 66.789062 782.019531 65.324219 781.730469 63.867188 C 781.4375 62.414062 781.078125 60.976562 780.648438 59.554688 C 780.214844 58.136719 779.714844 56.742188 779.144531 55.371094 C 778.578125 54 777.945312 52.660156 777.242188 51.355469 C 776.542969 50.046875 775.78125 48.773438 774.957031 47.542969 C 774.132812 46.308594 773.25 45.117188 772.308594 43.972656 C 771.367188 42.824219 770.371094 41.726562 769.324219 40.675781 C 768.273438 39.628906 767.175781 38.632812 766.027344 37.691406 C 764.882812 36.75 763.691406 35.867188 762.457031 35.042969 C 761.226562 34.21875 759.953125 33.457031 758.644531 32.757812 C 757.339844 32.054688 756 31.421875 754.628906 30.855469 C 753.257812 30.285156 751.863281 29.785156 750.445312 29.351562 C 749.023438 28.921875 747.585938 28.5625 746.132812 28.269531 C 744.675781 27.980469 743.210938 27.761719 741.734375 27.613281 C 740.257812 27.46875 738.777344 27.394531 737.296875 27.390625 Z M 72.703125 27.390625 " fill-opacity="1" fill-rule="nonzero"/><path fill="#f9f8f8" d="M 706.980469 748.632812 L 103.019531 748.632812 C 101.65625 748.632812 100.296875 748.5625 98.9375 748.429688 C 97.582031 748.292969 96.234375 748.09375 94.898438 747.824219 C 93.558594 747.558594 92.238281 747.226562 90.933594 746.828125 C 89.628906 746.433594 88.347656 745.972656 87.085938 745.449219 C 85.828125 744.925781 84.597656 744.34375 83.394531 743.699219 C 82.191406 743.058594 81.023438 742.355469 79.890625 741.597656 C 78.757812 740.839844 77.664062 740.027344 76.609375 739.164062 C 75.554688 738.296875 74.546875 737.382812 73.582031 736.417969 C 72.617188 735.453125 71.703125 734.445312 70.835938 733.390625 C 69.972656 732.335938 69.160156 731.242188 68.402344 730.109375 C 67.644531 728.976562 66.941406 727.808594 66.300781 726.605469 C 65.65625 725.402344 65.074219 724.171875 64.550781 722.914062 C 64.027344 721.652344 63.566406 720.371094 63.171875 719.066406 C 62.773438 717.761719 62.441406 716.441406 62.175781 715.101562 C 61.90625 713.765625 61.707031 712.417969 61.570312 711.0625 C 61.4375 709.703125 61.367188 708.34375 61.367188 706.980469 L 61.367188 103.019531 C 61.367188 101.65625 61.4375 100.296875 61.570312 98.9375 C 61.707031 97.582031 61.90625 96.234375 62.175781 94.898438 C 62.441406 93.558594 62.773438 92.238281 63.171875 90.933594 C 63.566406 89.628906 64.027344 88.347656 64.550781 87.085938 C 65.074219 85.828125 65.65625 84.597656 66.300781 83.394531 C 66.941406 82.191406 67.644531 81.023438 68.402344 79.890625 C 69.160156 78.757812 69.972656 77.664062 70.835938 76.609375 C 71.703125 75.554688 72.617188 74.546875 73.582031 73.582031 C 74.546875 72.617188 75.554688 71.703125 76.609375 70.835938 C 77.664062 69.972656 78.757812 69.160156 79.890625 68.402344 C 81.023438 67.644531 82.191406 66.941406 83.394531 66.300781 C 84.597656 65.65625 85.828125 65.074219 87.085938 64.550781 C 88.347656 64.027344 89.628906 63.566406 90.933594 63.171875 C 92.238281 62.773438 93.558594 62.441406 94.898438 62.175781 C 96.234375 61.90625 97.582031 61.707031 98.9375 61.570312 C 100.296875 61.4375 101.65625 61.367188 103.019531 61.367188 L 706.980469 61.367188 C 708.34375 61.367188 709.703125 61.4375 711.0625 61.570312 C 712.417969 61.707031 713.765625 61.90625 715.101562 62.175781 C 716.441406 62.441406 717.761719 62.773438 719.066406 63.171875 C 720.371094 63.566406 721.652344 64.027344 722.914062 64.550781 C 724.171875 65.074219 725.402344 65.65625 726.605469 66.300781 C 727.808594 66.941406 728.976562 67.644531 730.109375 68.402344 C 731.242188 69.160156 732.335938 69.972656 733.390625 70.835938 C 734.445312 71.703125 735.453125 72.617188 736.417969 73.582031 C 737.382812 74.546875 738.296875 75.554688 739.164062 76.609375 C 740.027344 77.664062 740.839844 78.757812 741.597656 79.890625 C 742.355469 81.023438 743.058594 82.191406 743.699219 83.394531 C 744.34375 84.597656 744.925781 85.828125 745.449219 87.085938 C 745.972656 88.347656 746.433594 89.628906 746.828125 90.933594 C 747.226562 92.238281 747.558594 93.558594 747.824219 94.898438 C 748.09375 96.234375 748.292969 97.582031 748.429688 98.9375 C 748.5625 100.296875 748.632812 101.65625 748.632812 103.019531 L 748.632812 706.980469 C 748.632812 708.34375 748.5625 709.703125 748.429688 711.0625 C 748.292969 712.417969 748.09375 713.765625 747.824219 715.101562 C 747.558594 716.441406 747.226562 717.761719 746.828125 719.066406 C 746.433594 720.371094 745.972656 721.652344 745.449219 722.914062 C 744.925781 724.171875 744.34375 725.402344 743.699219 726.605469 C 743.058594 727.808594 742.355469 728.976562 741.597656 730.109375 C 740.839844 731.242188 740.027344 732.335938 739.164062 733.390625 C 738.296875 734.445312 737.382812 735.453125 736.417969 736.417969 C 735.453125 737.382812 734.445312 738.296875 733.390625 739.164062 C 732.335938 740.027344 731.242188 740.839844 730.109375 741.597656 C 728.976562 742.355469 727.808594 743.058594 726.605469 743.699219 C 725.402344 744.34375 724.171875 744.925781 722.914062 745.449219 C 721.652344 745.972656 720.371094 746.433594 719.066406 746.828125 C 717.761719 747.226562 716.441406 747.558594 715.101562 747.824219 C 713.765625 748.09375 712.417969 748.292969 711.0625 748.429688 C 709.703125 748.5625 708.34375 748.632812 706.980469 748.632812 Z M 103.019531 88.757812 C 102.085938 88.757812 101.15625 88.851562 100.238281 89.035156 C 99.320312 89.21875 98.429688 89.488281 97.566406 89.847656 C 96.699219 90.207031 95.878906 90.648438 95.101562 91.167969 C 94.324219 91.6875 93.601562 92.277344 92.941406 92.941406 C 92.277344 93.601562 91.6875 94.324219 91.167969 95.101562 C 90.648438 95.878906 90.207031 96.699219 89.847656 97.566406 C 89.488281 98.429688 89.21875 99.320312 89.035156 100.238281 C 88.851562 101.15625 88.757812 102.085938 88.757812 103.019531 L 88.757812 706.980469 C 88.757812 707.914062 88.851562 708.84375 89.035156 709.761719 C 89.21875 710.679688 89.488281 711.570312 89.847656 712.433594 C 90.207031 713.300781 90.648438 714.121094 91.167969 714.898438 C 91.6875 715.675781 92.277344 716.398438 92.941406 717.058594 C 93.601562 717.722656 94.324219 718.3125 95.101562 718.832031 C 95.878906 719.351562 96.699219 719.792969 97.566406 720.152344 C 98.429688 720.511719 99.320312 720.78125 100.238281 720.964844 C 101.15625 721.148438 102.085938 721.242188 103.019531 721.242188 L 706.980469 721.242188 C 707.914062 721.242188 708.84375 721.148438 709.761719 720.964844 C 710.679688 720.78125 711.570312 720.511719 712.433594 720.152344 C 713.300781 719.792969 714.121094 719.351562 714.898438 718.832031 C 715.675781 718.3125 716.398438 717.722656 717.058594 717.058594 C 717.722656 716.398438 718.3125 715.675781 718.832031 714.898438 C 719.351562 714.121094 719.792969 713.300781 720.152344 712.433594 C 720.511719 711.570312 720.78125 710.679688 720.964844 709.761719 C 721.148438 708.84375 721.242188 707.914062 721.242188 706.980469 L 721.242188 103.019531 C 721.242188 102.085938 721.148438 101.15625 720.964844 100.238281 C 720.78125 99.320312 720.511719 98.429688 720.152344 97.566406 C 719.792969 96.699219 719.351562 95.878906 718.832031 95.101562 C 718.3125 94.324219 717.722656 93.601562 717.058594 92.941406 C 716.398438 92.277344 715.675781 91.6875 714.898438 91.167969 C 714.121094 90.648438 713.300781 90.207031 712.433594 89.847656 C 711.570312 89.488281 710.679688 89.21875 709.761719 89.035156 C 708.84375 88.851562 707.914062 88.757812 706.980469 88.757812 Z M 103.019531 88.757812 " fill-opacity="1" fill-rule="nonzero"/><path fill="#f9f8f8" d="M 219.34375 691.71875 L 148.15625 691.71875 C 147.257812 691.71875 146.367188 691.628906 145.484375 691.457031 C 144.605469 691.28125 143.746094 691.019531 142.917969 690.675781 C 142.085938 690.332031 141.296875 689.910156 140.546875 689.410156 C 139.800781 688.910156 139.109375 688.34375 138.472656 687.707031 C 137.835938 687.070312 137.269531 686.378906 136.769531 685.632812 C 136.269531 684.882812 135.847656 684.09375 135.503906 683.265625 C 135.160156 682.433594 134.902344 681.578125 134.726562 680.695312 C 134.550781 679.8125 134.460938 678.921875 134.460938 678.023438 L 134.460938 286.492188 C 134.460938 285.59375 134.550781 284.703125 134.726562 283.820312 C 134.902344 282.941406 135.160156 282.082031 135.503906 281.253906 C 135.847656 280.421875 136.269531 279.632812 136.769531 278.882812 C 137.269531 278.136719 137.835938 277.445312 138.472656 276.808594 C 139.109375 276.171875 139.800781 275.605469 140.546875 275.105469 C 141.296875 274.605469 142.085938 274.183594 142.917969 273.839844 C 143.746094 273.496094 144.605469 273.238281 145.484375 273.0625 C 146.367188 272.886719 147.257812 272.796875 148.15625 272.796875 L 219.34375 272.796875 C 220.246094 272.796875 221.136719 272.886719 222.015625 273.0625 C 222.898438 273.238281 223.757812 273.496094 224.585938 273.839844 C 225.417969 274.183594 226.207031 274.605469 226.953125 275.105469 C 227.703125 275.605469 228.394531 276.171875 229.03125 276.808594 C 229.664062 277.445312 230.234375 278.136719 230.734375 278.882812 C 231.234375 279.632812 231.65625 280.421875 232 281.253906 C 232.34375 282.082031 232.601562 282.941406 232.777344 283.820312 C 232.953125 284.703125 233.042969 285.59375 233.042969 286.492188 L 233.042969 678.023438 C 233.042969 678.921875 232.953125 679.8125 232.777344 680.695312 C 232.601562 681.578125 232.34375 682.433594 232 683.265625 C 231.65625 684.09375 231.234375 684.882812 230.734375 685.632812 C 230.234375 686.378906 229.664062 687.070312 229.03125 687.707031 C 228.394531 688.34375 227.703125 688.910156 226.953125 689.410156 C 226.207031 689.910156 225.417969 690.332031 224.585938 690.675781 C 223.757812 691.019531 222.898438 691.28125 222.015625 691.457031 C 221.136719 691.628906 220.246094 691.71875 219.34375 691.71875 Z M 161.851562 664.328125 L 205.648438 664.328125 L 205.648438 300.1875 L 161.851562 300.1875 Z M 182.132812 233.890625 C 178.34375 233.9375 174.585938 233.597656 170.867188 232.875 C 167.144531 232.15625 163.535156 231.066406 160.035156 229.609375 C 156.535156 228.152344 153.21875 226.359375 150.085938 224.226562 C 146.953125 222.09375 144.066406 219.667969 141.425781 216.949219 C 138.867188 214.246094 136.589844 211.328125 134.59375 208.1875 C 132.597656 205.046875 130.917969 201.742188 129.558594 198.277344 C 128.199219 194.8125 127.1875 191.25 126.515625 187.589844 C 125.84375 183.929688 125.527344 180.238281 125.570312 176.515625 C 125.570312 143.335938 150.582031 118.320312 183.757812 118.320312 C 216.929688 118.320312 241.023438 142.6875 241.132812 176.292969 C 241.589844 191.671875 236.238281 205.953125 226.015625 216.507812 C 215.21875 227.679688 199.566406 233.851562 182.132812 233.851562 Z M 183.757812 145.710938 C 165.914062 145.710938 152.960938 158.664062 152.960938 176.515625 C 152.960938 193.890625 165.226562 206.5 182.132812 206.5 C 192.238281 206.5 200.601562 203.378906 206.324219 197.460938 C 211.449219 192.160156 214.023438 185.078125 213.75 176.96875 C 213.75 176.820312 213.75 176.664062 213.75 176.515625 C 213.738281 157.765625 201.972656 145.671875 183.757812 145.671875 Z M 241.132812 176.515625 Z M 241.132812 176.515625 " fill-opacity="1" fill-rule="nonzero"/><path fill="#f9f8f8" d="M 670.734375 691.71875 L 599.546875 691.71875 C 598.648438 691.71875 597.757812 691.628906 596.875 691.457031 C 595.992188 691.28125 595.136719 691.019531 594.304688 690.675781 C 593.476562 690.332031 592.683594 689.910156 591.9375 689.410156 C 591.191406 688.910156 590.5 688.34375 589.863281 687.707031 C 589.226562 687.070312 588.660156 686.378906 588.160156 685.632812 C 587.660156 684.882812 587.238281 684.09375 586.894531 683.265625 C 586.550781 682.433594 586.289062 681.578125 586.113281 680.695312 C 585.9375 679.8125 585.851562 678.921875 585.851562 678.023438 L 585.851562 452.328125 C 585.851562 421.179688 579.71875 395.648438 568.09375 378.507812 C 555.242188 359.550781 535.902344 350.34375 508.949219 350.34375 C 465.40625 350.34375 436.207031 382.039062 426.589844 413.460938 C 426.523438 413.6875 426.445312 413.910156 426.363281 414.128906 C 423.800781 421.171875 422.335938 431.550781 422.335938 442.613281 L 422.335938 678.023438 C 422.335938 678.921875 422.246094 679.8125 422.070312 680.695312 C 421.894531 681.578125 421.636719 682.433594 421.292969 683.265625 C 420.949219 684.09375 420.527344 684.882812 420.027344 685.632812 C 419.527344 686.378906 418.960938 687.070312 418.324219 687.707031 C 417.6875 688.34375 416.996094 688.910156 416.246094 689.410156 C 415.5 689.910156 414.710938 690.332031 413.878906 690.675781 C 413.050781 691.019531 412.191406 691.28125 411.3125 691.457031 C 410.429688 691.628906 409.539062 691.71875 408.640625 691.71875 L 337.5 691.71875 C 336.601562 691.71875 335.710938 691.628906 334.828125 691.457031 C 333.945312 691.28125 333.089844 691.019531 332.257812 690.675781 C 331.429688 690.332031 330.640625 689.910156 329.890625 689.410156 C 329.144531 688.910156 328.453125 688.34375 327.816406 687.707031 C 327.179688 687.070312 326.613281 686.378906 326.113281 685.632812 C 325.613281 684.882812 325.191406 684.09375 324.847656 683.265625 C 324.503906 682.433594 324.242188 681.578125 324.066406 680.695312 C 323.890625 679.8125 323.804688 678.921875 323.804688 678.023438 L 323.804688 392.457031 C 323.804688 348.789062 322.824219 317.398438 320.605469 287.511719 C 320.570312 287.042969 320.5625 286.574219 320.578125 286.105469 C 320.59375 285.632812 320.628906 285.167969 320.695312 284.703125 C 320.757812 284.234375 320.84375 283.773438 320.953125 283.316406 C 321.0625 282.863281 321.195312 282.410156 321.351562 281.96875 C 321.507812 281.527344 321.6875 281.09375 321.890625 280.667969 C 322.089844 280.242188 322.3125 279.832031 322.558594 279.429688 C 322.800781 279.027344 323.0625 278.640625 323.347656 278.265625 C 323.632812 277.890625 323.933594 277.53125 324.253906 277.1875 C 324.574219 276.84375 324.910156 276.519531 325.265625 276.210938 C 325.621094 275.902344 325.988281 275.609375 326.371094 275.339844 C 326.757812 275.070312 327.152344 274.820312 327.5625 274.589844 C 327.972656 274.359375 328.394531 274.152344 328.824219 273.964844 C 329.253906 273.777344 329.695312 273.613281 330.140625 273.472656 C 330.589844 273.332031 331.042969 273.214844 331.503906 273.117188 C 331.964844 273.023438 332.429688 272.953125 332.894531 272.90625 C 333.363281 272.859375 333.832031 272.835938 334.300781 272.835938 L 397.398438 272.835938 C 398.261719 272.835938 399.121094 272.914062 399.96875 273.074219 C 400.816406 273.234375 401.644531 273.472656 402.449219 273.792969 C 403.253906 274.109375 404.019531 274.496094 404.75 274.960938 C 405.480469 275.421875 406.160156 275.949219 406.792969 276.539062 C 407.421875 277.128906 407.992188 277.773438 408.5 278.472656 C 409.007812 279.171875 409.445312 279.914062 409.816406 280.695312 C 410.183594 281.476562 410.476562 282.285156 410.691406 283.121094 C 410.90625 283.960938 411.039062 284.808594 411.09375 285.671875 L 412.875 314.21875 C 421.996094 304.457031 432.210938 296.011719 443.515625 288.890625 C 469.449219 272.5625 500.253906 263.933594 532.535156 263.933594 C 554.144531 263.933594 595.703125 268.667969 631.15625 300.386719 C 666.605469 332.101562 684.558594 380.496094 684.558594 444.277344 L 684.558594 678.082031 C 684.554688 678.984375 684.460938 679.875 684.28125 680.761719 C 684.101562 681.644531 683.835938 682.503906 683.484375 683.335938 C 683.136719 684.164062 682.707031 684.953125 682.203125 685.703125 C 681.695312 686.449219 681.121094 687.140625 680.480469 687.773438 C 679.839844 688.40625 679.140625 688.972656 678.386719 689.46875 C 677.632812 689.960938 676.835938 690.378906 676 690.71875 C 675.164062 691.058594 674.304688 691.308594 673.417969 691.480469 C 672.53125 691.648438 671.636719 691.726562 670.734375 691.71875 Z M 613.242188 664.328125 L 657.039062 664.328125 L 657.039062 444.21875 C 657.039062 388.566406 642.148438 347.027344 612.761719 320.742188 C 583.023438 294.144531 546.660156 291.265625 532.410156 291.265625 C 471.425781 291.265625 431.832031 325.507812 415.113281 357.523438 C 414.535156 358.636719 413.820312 359.648438 412.964844 360.558594 C 412.109375 361.472656 411.144531 362.253906 410.074219 362.90625 C 409.003906 363.554688 407.867188 364.046875 406.660156 364.382812 C 405.457031 364.722656 404.226562 364.890625 402.976562 364.890625 L 401.359375 364.890625 C 400.496094 364.894531 399.640625 364.8125 398.789062 364.652344 C 397.941406 364.492188 397.113281 364.253906 396.308594 363.9375 C 395.503906 363.617188 394.738281 363.230469 394.007812 362.765625 C 393.277344 362.304688 392.597656 361.777344 391.964844 361.183594 C 391.335938 360.59375 390.765625 359.949219 390.257812 359.25 C 389.75 358.550781 389.308594 357.808594 388.941406 357.027344 C 388.574219 356.246094 388.28125 355.433594 388.066406 354.597656 C 387.851562 353.761719 387.71875 352.910156 387.664062 352.046875 L 384.417969 300.199219 L 348.867188 300.199219 C 350.453125 326.535156 351.195312 355.109375 351.195312 392.457031 L 351.195312 664.328125 L 394.992188 664.328125 L 394.992188 442.613281 C 394.992188 428.4375 396.949219 415.144531 400.550781 405.117188 C 402.308594 399.488281 404.46875 394.015625 407.03125 388.703125 C 409.59375 383.390625 412.535156 378.292969 415.847656 373.414062 C 419.164062 368.535156 422.816406 363.925781 426.808594 359.582031 C 430.804688 355.242188 435.09375 351.21875 439.679688 347.507812 C 444.542969 343.554688 449.707031 340.046875 455.171875 336.980469 C 460.640625 333.914062 466.324219 331.332031 472.234375 329.242188 C 478.140625 327.148438 484.183594 325.574219 490.359375 324.519531 C 496.539062 323.464844 502.761719 322.941406 509.027344 322.953125 C 544.726562 322.953125 573.015625 336.84375 590.839844 363.140625 C 605.757812 385.140625 613.339844 415.152344 613.339844 452.328125 Z M 613.242188 664.328125 " fill-opacity="1" fill-rule="nonzero"/></svg>